<svg width="3.4772in" height="1.0446in" clip-rule="evenodd" fill-rule="evenodd" image-rendering="optimizeQuality" shape-rendering="geometricPrecision" text-rendering="geometricPrecision" version="1.1" viewBox="0 0 34772 10446" xmlns="http://www.w3.org/2000/svg">
 <defs>
  <style type="text/css"><![CDATA[
    .fil0 {fill:#6C87C3}
    .fil2 {fill:#999999}
    .fil1 {fill:#D2AE6D}
   ]]></style>
 </defs>
 <path class="fil0" d="m21839 5747h3448l1149-1149h-3448v-1150l2299-1 1149-1148h-3448v-1150h2298l1150-1149h-3449l-1149 1149v1150h-2299l-1149 1149v1150h-3448l-1149 1149h4598l1148-1149v-1150h2299l1 2299zm-18391 0h1149v-3448h-4597v1149h3448v2299zm-1149-1149h-2299v1149h2299v-1149zm3448-3449v2299h4597l1150-1149h-4598v-2299h-6896v1149h5747zm8045 1150v-2299h-4597l-1149 1149h4597v3449h-2299l-1149 1149h3448l1149-1149v-1150l3449-1 1149-1148h-4598zm-8045 2299v1149h2299l1149-1149h-3448zm11494-4598v1149h1149v-1149h-1149z"/>
 <path class="fil1" d="m27875 1149h5747l1149-1149h-6896v1149zm4598 3448h-4597v1150h4597v-1150zm2299-2298h-6897v1148h5747v2299h1149l1-3447z"/>
 <path class="fil2" d="m25575 9652c84 71 205 87 312 87h1374c105 0 190-14 257-42 111-47 196-124 227-244 30-120 26-214-24-329-68-169-233-324-373-436-98-78-218-159-357-241l885-391v-244l-1102 485c-55 40-116 166-120 232 110 54 217 115 323 182 165 104 360 251 476 410 49 67 74 126 74 178 0 158-126 190-260 190h-1349c-177 0-215-63-215-232v-1667h-247v1733c0 120 24 246 119 329zm-24946 294c16-102 25-227 25-376v-840h-243v808c0 104-3 192-8 266-5 73-21 134-49 181-71 122-227 133-354 133v251c135 0 245-14 330-43 186-59 266-196 299-380zm6878 251c0 88 71 159 160 159s160-70 160-159c0-90-71-159-160-159s-160 70-160 159zm-4074-744c30-120 25-213-23-329-70-170-233-323-374-436-98-78-218-159-358-241l886-391v-244l-1102 485c-54 39-116 167-120 232 110 54 217 115 322 182 106 66 199 136 281 205 81 70 146 137 196 205 67 90 128 263 0 329-50 26-112 39-186 39h-1350c-90 0-148-17-175-53-26-35-40-95-40-179v-1667h-246v1733c0 182 60 351 254 396 53 14 112 20 176 20h1375c105 0 190-14 256-42 113-47 196-123 228-244zm2176 178v-282c0-185-22-404-124-563-102-161-260-221-445-221-173 0-331 64-442 199-102 123-153 284-153 443 0 155 37 313 161 416 108 90 256 116 393 116 123 0 251-21 357-86 0 93 2 192-47 276-74 122-205 164-340 178-119 12-236 12-356 12v250h127c205 0 467-16 637-144 189-140 232-373 232-594zm-832-207c-61-49-91-131-91-245 0-89 26-178 79-250 64-85 158-126 263-126 111 0 199 44 257 139 60 100 71 234 71 349v111c-30 24-73 46-131 66-59 21-126 30-203 30-101 0-183-24-245-74zm8756 29c30-120 25-213-23-329-71-172-231-322-373-436-99-78-218-159-358-241l885-391v-244l-1101 485c-56 37-115 168-121 232 110 54 217 115 322 182 106 66 199 136 281 205 81 70 147 137 196 205 50 67 74 126 74 178 0 159-125 190-260 190h-1303c-54 0-97-8-131-24-72-35-107-92-121-170-7-41-10-87-10-136v-579h-248v690c0 50-5 90-16 118-22 57-59 86-119 95-72 10-173 11-239-18-77-34-115-89-131-170-7-41-11-87-11-136v-429h-246v540c0 62-9 147-66 185-49 35-137 34-196 34-92 0-200-13-261-90-22-28-36-63-42-104-7-41-10-87-10-136v-429h-247v540c0 70-9 147-76 185-67 36-202 34-278 34-89 0-222 14-303-24-34-16-62-38-81-66-20-28-34-63-41-104s-10-87-10-136v-579h-247v690c0 70-9 147-77 185-65 37-204 34-279 34h-1098c-97 0-177-3-239-9-90-8-185-30-223-122-16-37-23-87-23-148v-377h-247v466c0 127 22 260 131 340 123 90 330 100 477 100h1225c86 0 161-2 226-8 144-10 288-42 349-187 17 56 49 102 97 140 89 68 245 55 357 55 109 0 285 1 386-38 86-29 138-76 174-160 12 23 26 47 45 72 78 108 240 126 363 126 106 0 195-12 270-36 76-24 131-77 167-159 10 21 23 44 41 67 73 102 233 128 350 128 25 0 53-2 88-8 74-9 149-41 208-86 32-26 57-59 75-101 17 56 48 102 97 140 48 36 111 55 190 55h1297c106 0 190-14 256-42 111-46 198-124 228-244zm9028-1581c88 0 158-70 158-159 0-88-69-159-158-159-90 0-162 70-162 159 0 90 73 159 162 159zm-43 202c0-88-71-159-159-159-89 0-160 70-160 159s71 160 160 160c88 0 159-72 159-160zm71 0c0 89 72 160 161 160s159-71 159-160-70-159-159-159-161 70-161 159zm-3709-148c-54 61-103 152-103 235l1169-514v-226l-1023 466c-11 7-26 20-43 39zm-3500 652c31-31 47-68 47-113 0-44-16-82-47-112-31-31-68-47-112-47s-82 16-114 47c-31 30-47 68-47 112 0 45 16 82 47 113 32 32 70 47 114 47s81-15 112-47zm703 779v-777h-244v774c0 139-19 309-137 401-115 91-297 102-438 102-194 0-341-40-440-118-100-78-150-215-150-409v-413h-243v463c0 236 68 415 205 538 138 124 345 186 622 186 261 0 464-58 608-175 145-117 217-307 217-572zm736 382v-2149h-246v2149h246zm2516-250h-1300c-100 0-169-29-206-89-37-59-56-140-56-241v-429h-244v808c0 104-2 192-7 266-9 125-48 235-173 283-55 21-132 32-230 32v250c182 0 406-19 528-173 118-151 123-423 123-607 22 40 54 75 99 106 44 29 99 44 166 44h1295c202 0 426-65 483-286 30-120 26-213-23-329-70-171-231-322-373-436-98-78-218-159-358-241l885-391v-244l-1101 485c-56 37-115 168-121 232 211 104 424 235 603 387 96 82 270 248 270 383 0 75-24 125-74 151-49 26-111 39-186 39zm4101 250v-1159h-246v909h-253c-133 0-227-57-249-194-7-41-11-87-11-136v-429h-246v540c0 116-26 197-156 213-35 4-77 6-124 6-67 0-120-8-157-24-38-16-68-38-88-66-22-28-35-63-42-104-6-41-9-87-9-136v-429h-244v970c0 101-11 183-33 248-47 134-147 204-283 231-154 28-363 31-515-7-143-35-244-110-296-251-25-67-38-149-38-245v-413h-244v465c0 234 69 412 206 535 137 122 345 183 622 183 261 0 463-58 608-174 145-117 217-307 217-569v-111c23 40 59 75 109 104 120 68 389 46 517 7 78-24 136-77 172-159 16 56 47 102 95 140 47 36 111 55 189 55h499zm1560-108v-282c0-116-10-220-29-316-58-291-228-468-540-468-267 0-474 156-556 405-50 145-57 347 4 489 93 216 290 280 511 280 124 0 250-22 358-86 0 168-12 313-182 399-150 75-393 67-562 67v250h127c205 0 467-16 637-144 189-140 232-373 232-594zm-252-229c-89 69-225 96-335 96-214 0-336-98-336-319 0-42 6-85 19-129 43-151 166-247 323-247 185 0 281 124 312 295 18 104 17 200 17 304z"/>
</svg>
